<?xml version="1.0" encoding="UTF-8" standalone="no"?>
<!DOCTYPE svg PUBLIC "-//W3C//DTD SVG 1.1//EN" "http://www.w3.org/Graphics/SVG/1.1/DTD/svg11.dtd">
<svg width="100%" height="100%" viewBox="0 0 715 85" version="1.1" xmlns="http://www.w3.org/2000/svg" xmlns:xlink="http://www.w3.org/1999/xlink" xml:space="preserve" xmlns:serif="http://www.serif.com/" style="fill-rule:evenodd;clip-rule:evenodd;stroke-linejoin:round;stroke-miterlimit:2;">
    <g transform="matrix(1,0,0,1,-325,-551)">
        <g transform="matrix(1.33333,0,0,1.33333,257.286,0)">
            <g id="title">
                <g id="path15989" transform="matrix(1.25,0,0,1.25,-319.556,476.721)">
                    <path d="M322.71,-50.4L305.43,-50.4L296.502,0L369.366,0L371.958,-14.4L316.302,-14.4L322.71,-50.4ZM355.398,-18.72L372.678,-18.72L378.294,-50.4L361.014,-50.4L355.398,-18.72Z" style="fill:rgb(237,233,254);fill-rule:nonzero;"/>
                </g>
                <g id="path15991" transform="matrix(1.25,0,0,1.25,-319.556,476.721)">
                    <path d="M378.834,-50.4L395.106,0L416.706,0L450.834,-50.4L429.234,-50.4L407.778,-18.72L397.554,-50.4L378.834,-50.4ZM421.746,0L480.714,0L483.306,-14.4L431.466,-14.4L421.746,0ZM434.418,-18.72L484.026,-18.72L486.33,-31.68L443.13,-31.68L434.418,-18.72ZM446.154,-36L487.05,-36L489.642,-50.4L455.874,-50.4L446.154,-36Z" style="fill:rgb(221,214,254);fill-rule:nonzero;"/>
                </g>
                <g id="path15993" transform="matrix(1.25,0,0,1.25,-319.556,476.721)">
                    <path d="M484.377,0L501.657,0L504.681,-17.208L514.185,-17.208L521.817,0L539.817,0L531.753,-18.144C538.737,-19.584 543.993,-23.544 545.793,-33.84C548.457,-48.96 538.593,-50.4 525.993,-50.4L493.305,-50.4L490.713,-36L526.713,-36C527.865,-36 528.729,-34.992 528.513,-33.84C528.297,-32.688 527.145,-31.68 525.993,-31.68L489.993,-31.68L484.377,0ZM538.593,-14.4L545.001,0L592.089,0L575.817,-50.4L554.217,-50.4L548.889,-45.72C550.329,-42.84 550.761,-38.808 549.897,-32.976C549.609,-31.248 549.321,-29.592 548.889,-28.152L561.489,-39.096L569.409,-14.4L538.593,-14.4Z" style="fill:rgb(196,181,253);fill-rule:nonzero;"/>
                </g>
                <g id="path15995" transform="matrix(1.25,0,0,1.25,-319.556,476.721)">
                    <path d="M592.655,0L629.087,0C644.207,0 657.023,-11.232 659.471,-25.2C661.919,-39.168 653.135,-50.4 638.015,-50.4L601.583,-50.4L598.991,-36L633.047,-36C639.167,-36 643.199,-31.104 642.191,-25.344C641.111,-19.224 635.423,-14.4 629.303,-14.4L612.455,-14.4L615.551,-31.68L598.271,-31.68L592.655,0Z" style="fill:rgb(167,139,250);fill-rule:nonzero;"/>
                </g>
                <g id="path15997" transform="matrix(1.25,0,0,1.25,-319.556,476.721)">
                    <path d="M681.256,0L694.36,0C709.48,0 722.296,-10.8 724.816,-25.2C727.336,-39.6 718.552,-50.4 703.432,-50.4L690.328,-50.4C675.208,-50.4 662.392,-39.6 659.872,-25.2C657.352,-10.8 666.136,0 681.256,0ZM677.152,-25.344C678.232,-31.104 683.92,-36 690.04,-36L698.392,-36C704.512,-36 708.544,-31.104 707.536,-25.344C706.456,-19.224 700.768,-14.472 694.648,-14.4L686.224,-14.328C680.104,-14.256 676.072,-19.224 677.152,-25.344Z" style="fill:rgb(167,139,250);fill-rule:nonzero;"/>
                </g>
            </g>
        </g>
    </g>
</svg>
